PathFileType	4	(X/Y/Z)	OpenSim_Sub03_EMGBaseline_Gyro.trc
DataRate	CameraRate	NumFrames	NumMarkers	Units	OrigDataRate	OrigDataStartFrame	OrigNumFrames
100	100	40	8	m	100	6451	7372
Frame#	Time	torso_imu_offset_imu	pelvis_imu_offset_imu	tibia_r_imu_offset_imu	femur_r_imu_offset_imu	tibia_l_imu_offset_imu	femur_l_imu_offset_imu	toes_r_imu_offset_imu	toes_l_imu_offset_imu
				X1	Y1	Z1	X2	Y2	Z2	X3	Y3	Z3	X4	Y4	Z4	X5	Y5	Z5	X6	Y6	Z6	X7	Y7	Z7	X8		Y8	Z8	

6451	64.50000000	0.19243415	-0.10479746	-0.08254035	-0.38324450	0.09837755	-0.45915205	-0.44595812	-0.18244584	-0.53267152	-0.65769061	0.01604054	-0.52621870	-1.40557868	-0.40790386	-1.97784485	-1.18090063	-0.13215720	-1.22695751	-0.17993146	-0.21391297	-0.03103104	0.17125033	2.47763078	-2.85244902
6452	64.51000000	0.15082176	-0.13178168	-0.08743085	-0.36984454	0.11877296	-0.42114627	-0.43368563	-0.19348065	-0.55213055	-0.55663140	-0.00888053	-0.45863692	-1.45624478	-0.33307397	-2.27533452	-1.24056905	-0.12307369	-1.23205154	-0.14122625	-0.21716883	-0.06246515	0.36409064	2.72475782	-2.83924801
6453	64.52000000	0.11437942	-0.16417128	-0.10474628	-0.35114387	0.12434020	-0.37284423	-0.35987524	-0.19718787	-0.58612314	-0.48369865	-0.03493860	-0.41026213	-1.40970186	-0.32690267	-2.54135320	-1.22325661	-0.12106905	-1.21662123	-0.11114751	-0.22173323	-0.08128904	0.44346349	2.95417472	-2.63088170
6454	64.53000000	0.08857756	-0.19377721	-0.11494392	-0.31746864	0.11836694	-0.31896866	-0.29517657	-0.20127574	-0.61237858	-0.41265353	-0.05516986	-0.39115435	-1.31291897	-0.37879043	-2.78781257	-1.14718801	-0.12319924	-1.17538142	-0.11311210	-0.22231386	-0.08924667	0.39153438	3.17738090	-2.30134033
6455	64.54000000	0.06539426	-0.22080980	-0.10502857	-0.28383863	0.11318183	-0.27855903	-0.29434413	-0.20158674	-0.61377223	-0.32653389	-0.08078908	-0.40946279	-1.06433117	-0.41340624	-3.03566326	-1.06041703	-0.10194770	-1.13697850	-0.09444782	-0.23233247	-0.08839990	0.35903502	3.38828152	-1.92103261
6456	64.55000000	0.05327920	-0.24734254	-0.07836768	-0.24041304	0.12095837	-0.24518972	-0.30602737	-0.18235004	-0.60414733	-0.24770077	-0.09474719	-0.45359404	-0.69522477	-0.36875265	-3.24180343	-0.97286075	-0.06765338	-1.08291836	-0.07110503	-0.25872776	-0.07828603	0.44381519	3.62404267	-1.54600547
6457	64.56000000	0.04361164	-0.26919254	-0.05973002	-0.18678797	0.12680753	-0.20772150	-0.28274765	-0.17634207	-0.59501934	-0.19197683	-0.09596476	-0.50107264	-0.25626525	-0.30000422	-3.39186261	-0.86839438	-0.04017075	-1.02127726	-0.09800483	-0.26853456	-0.07335468	0.59855351	3.88760680	-1.21959321
6458	64.57000000	0.04372742	-0.27927367	-0.04168663	-0.14151372	0.11626946	-0.18121261	-0.25502000	-0.17031161	-0.60361133	-0.17603732	-0.07843287	-0.54141914	0.21593677	-0.28102833	-3.51384079	-0.74757259	-0.02879076	-0.93981331	-0.12814734	-0.26995455	-0.04988558	0.72447283	4.11936159	-0.96021260
6459	64.58000000	0.03940604	-0.28017174	-0.01689924	-0.10027254	0.11386936	-0.14756709	-0.25737245	-0.15669317	-0.61372132	-0.19659107	-0.06121510	-0.57777260	0.61552391	-0.30948563	-3.62586127	-0.59497804	-0.05908251	-0.83798478	-0.14391767	-0.28853337	-0.03314124	0.74367499	4.28288514	-0.77299863
6460	64.59000000	0.02617779	-0.28232234	0.00972849	-0.07060332	0.12413622	-0.12275251	-0.24744507	-0.14825536	-0.60809354	-0.23538333	-0.05823476	-0.60413879	0.81903378	-0.33962971	-3.76152783	-0.40517979	-0.10309780	-0.70837417	-0.14051114	-0.29281269	-0.01690967	0.67410763	4.38905678	-0.68989291
6461	64.60000000	0.01336319	-0.27058003	0.02179197	-0.05487027	0.12901985	-0.10561379	-0.23925075	-0.14294167	-0.61213874	-0.26465667	-0.04577635	-0.60757317	0.71699667	-0.35506518	-3.91869304	-0.19793437	-0.12048239	-0.56631339	-0.15885901	-0.30315692	-0.01320350	0.61108354	4.43930601	-0.73594045
6462	64.61000000	-0.00035632	-0.25409435	0.03223469	-0.06327696	0.12866997	-0.09121324	-0.23605265	-0.13697944	-0.61935628	-0.27571288	-0.03609602	-0.59577443	0.33842303	-0.39202269	-4.06466776	0.01266239	-0.15123309	-0.42087514	-0.16074400	-0.31281743	-0.01820492	0.50833992	4.44247989	-0.89602486
6463	64.62000000	-0.02112374	-0.24345306	0.04902513	-0.09142841	0.13000038	-0.08114350	-0.25125102	-0.13425428	-0.64050840	-0.26539682	-0.04008770	-0.56310742	-0.23370212	-0.41028073	-4.19156187	0.21315928	-0.20029726	-0.27364726	-0.16747624	-0.32401789	-0.02503157	0.35691454	4.39351051	-1.16651308
6464	64.63000000	-0.03739677	-0.22982433	0.06648013	-0.12168498	0.12229781	-0.06803419	-0.26396274	-0.13717869	-0.65894790	-0.23844333	-0.05374733	-0.53612407	-0.83883242	-0.41435216	-4.27640016	0.40083700	-0.24551929	-0.12222264	-0.16888215	-0.34626368	-0.04716260	0.17230134	4.29771371	-1.51794203
6465	64.64000000	-0.04605449	-0.22147483	0.07282189	-0.16328056	0.12472113	-0.05708377	-0.28152018	-0.14832802	-0.65366425	-0.21436286	-0.06573695	-0.51347590	-1.37629269	-0.39802256	-4.32284654	0.52250773	-0.27588698	0.02503125	-0.15713279	-0.37427290	-0.07828822	-0.00744795	4.14213613	-1.91185047
6466	64.65000000	-0.05518278	-0.21542382	0.06937418	-0.19815381	0.13613112	-0.04951526	-0.30927467	-0.15057296	-0.67090238	-0.18886633	-0.06648796	-0.48959059	-1.79968269	-0.31896564	-4.33815530	0.51993511	-0.26876783	0.15640123	-0.12765080	-0.40526345	-0.11192273	-0.09184862	3.91782593	-2.30951258
6467	64.66000000	-0.06362477	-0.20809008	0.05810991	-0.22824595	0.14790439	-0.03590238	-0.34473779	-0.15196442	-0.69503909	-0.20111512	-0.05601211	-0.47100884	-2.04551082	-0.20657335	-4.31530824	0.38399829	-0.24020301	0.26331119	-0.11097540	-0.42239659	-0.13280437	-0.09864946	3.66714856	-2.67910064
6468	64.67000000	-0.06401783	-0.20154049	0.04191879	-0.24829443	0.13631739	-0.01390233	-0.35390590	-0.14682591	-0.71106444	-0.23669069	-0.03927353	-0.45856184	-2.06999352	-0.09444738	-4.24820323	0.17407490	-0.18699690	0.33064416	-0.13406534	-0.44404128	-0.15612475	-0.10077882	3.43711012	-2.99708164
6469	64.68000000	-0.07142938	-0.19757637	0.02538007	-0.26592467	0.12067721	0.00122939	-0.35188899	-0.13124295	-0.70959749	-0.26808048	-0.01995893	-0.43615190	-1.83451388	0.03523590	-4.14687258	-0.03020871	-0.11940275	0.36913761	-0.13386795	-0.46818167	-0.17702075	-0.14585593	3.25082807	-3.21272342
6470	64.69000000	-0.08594564	-0.18783393	-0.00005539	-0.28628258	0.12539490	0.00966351	-0.38131629	-0.14194785	-0.72260604	-0.33214219	0.01577593	-0.43815873	-1.38898516	0.17367082	-4.02590860	-0.19533794	-0.09815758	0.38979628	-0.13314823	-0.50105085	-0.18243586	-0.21500922	3.08572094	-3.27490373
6471	64.70000000	-0.10543375	-0.17604680	-0.02154955	-0.29992805	0.13008895	0.01335377	-0.38255139	-0.14926819	-0.75542404	-0.40774693	0.05721219	-0.44148694	-0.96375530	0.23288946	-3.84268108	-0.30814168	-0.13284792	0.42521124	-0.18257757	-0.51715105	-0.17414247	-0.23706327	2.93202099	-3.16539335
6472	64.71000000	-0.12185946	-0.16281633	-0.04288219	-0.32159889	0.12656261	0.00368377	-0.35964329	-0.13051184	-0.77261353	-0.43431523	0.08221878	-0.40795076	-0.69633881	0.21320069	-3.61823762	-0.39726748	-0.18825255	0.48927206	-0.15067255	-0.54949682	-0.18205724	-0.22471491	2.81584081	-2.90472789
6473	64.72000000	-0.13746639	-0.14983883	-0.06668385	-0.34630111	0.12473603	-0.01517316	-0.36504494	-0.14306902	-0.77458213	-0.45902651	0.11043571	-0.41949753	-0.57127061	0.21618990	-3.42535219	-0.49059463	-0.22197268	0.55999413	-0.10029443	-0.58982542	-0.20122936	-0.19173515	2.74825603	-2.54347381
6474	64.73000000	-0.15959687	-0.13931475	-0.08824086	-0.37275069	0.12911701	-0.03541748	-0.37609121	-0.13968097	-0.79400436	-0.47690738	0.13749423	-0.45129635	-0.57246542	0.21996465	-3.23194088	-0.60901848	-0.20928877	0.61519262	-0.12216141	-0.61440399	-0.21132199	-0.12861290	2.67274987	-2.13667741
6475	64.74000000	-0.17718942	-0.13006250	-0.10364427	-0.39785372	0.13743718	-0.04629841	-0.37240385	-0.12449035	-0.82512247	-0.46008647	0.14401219	-0.41475923	-0.65352233	0.16144380	-2.97280712	-0.71061229	-0.20976079	0.65271376	-0.12800887	-0.63757406	-0.23102655	-0.04917208	2.51825858	-1.74786540
6476	64.75000000	-0.19538909	-0.12293541	-0.11151579	-0.41783142	0.13791971	-0.05649260	-0.35166067	-0.10620190	-0.84503197	-0.43986646	0.14321427	-0.39729916	-0.65895301	0.07241322	-2.70518328	-0.79840161	-0.25558674	0.67765815	-0.08849837	-0.67303148	-0.26436693	0.05375058	2.32582143	-1.44074766
6477	64.76000000	-0.21458057	-0.10352239	-0.12214836	-0.43062159	0.11707849	-0.06317699	-0.34081735	-0.09054997	-0.84835141	-0.42805290	0.14170795	-0.42623217	-0.54033109	0.01969386	-2.46361549	-0.88473466	-0.30246314	0.68376212	-0.04802205	-0.70723239	-0.29605461	0.19847121	2.13455073	-1.23961500
6478	64.77000000	-0.21936361	-0.09192233	-0.12657657	-0.42845359	0.09810372	-0.06003711	-0.35665339	-0.09927565	-0.85492580	-0.41134623	0.15364890	-0.42633762	-0.35606908	-0.00119246	-2.18248018	-0.92569618	-0.31598131	0.64285340	-0.07701986	-0.73690206	-0.31844104	0.31960126	1.91641147	-1.13828505
6479	64.78000000	-0.22334227	-0.08064043	-0.12548534	-0.41468327	0.08495749	-0.05364375	-0.35970624	-0.11196548	-0.87868284	-0.41227604	0.17136173	-0.42711250	-0.15558978	-0.04330321	-1.82644184	-0.90518340	-0.31221408	0.55795831	-0.06728975	-0.78476886	-0.35553428	0.42179113	1.62370742	-1.08436542
6480	64.79000000	-0.22992901	-0.06884624	-0.12534867	-0.39919976	0.06285296	-0.04590969	-0.36814258	-0.09288478	-0.90456266	-0.42553292	0.19439864	-0.42578779	0.07566375	-0.08512710	-1.44470273	-0.83268611	-0.34746646	0.45823586	-0.06446933	-0.82365897	-0.37931916	0.55683734	1.27838644	-1.00917700
6481	64.80000000	-0.23527176	-0.06026213	-0.12607264	-0.38604064	0.02029872	-0.03393314	-0.38140368	-0.07207799	-0.93071699	-0.42904552	0.21632435	-0.42877026	0.29279469	-0.12829633	-1.08490269	-0.72875776	-0.39250426	0.37190543	-0.07331828	-0.87538215	-0.39272217	0.62535858	0.91929883	-0.86685084
6482	64.81000000	-0.24026345	-0.04702844	-0.12243420	-0.37843267	-0.02101589	-0.01906384	-0.41637801	-0.06244689	-0.94671792	-0.40559465	0.23430032	-0.38141621	0.33860736	-0.17062818	-0.70005077	-0.63050507	-0.39585493	0.31991966	-0.09901812	-0.93201858	-0.39409779	0.60525894	0.57545606	-0.63282852
6483	64.82000000	-0.24676359	-0.02886688	-0.12134180	-0.38294558	-0.04533142	-0.01814453	-0.45269969	-0.06817297	-0.97968501	-0.37900550	0.25837123	-0.32049302	0.23654884	-0.20105034	-0.26868575	-0.53018112	-0.36187204	0.28446338	-0.11520758	-1.00229215	-0.39141707	0.55907131	0.23071364	-0.34686805
6484	64.83000000	-0.25131374	-0.00758314	-0.11594960	-0.39043360	-0.06533926	-0.03381989	-0.48038451	-0.06076437	-1.03382324	-0.41403150	0.30521820	-0.36569293	0.09757853	-0.24886132	0.16370813	-0.38237977	-0.32909729	0.25831902	-0.18276548	-1.07179097	-0.35840260	0.41738364	-0.18688573	-0.06805043
6485	64.84000000	-0.25116718	0.02312538	-0.11082022	-0.39465295	-0.09205002	-0.03639751	-0.50128542	-0.03902675	-1.08544709	-0.45134989	0.35478961	-0.39840836	-0.00182069	-0.28403541	0.53974555	-0.16690482	-0.30863873	0.24528403	-0.23188232	-1.14403626	-0.33662611	0.52909274	-0.61577776	0.17165851
6486	64.85000000	-0.26090068	0.06734295	-0.10283569	-0.41604968	-0.12658123	-0.03257209	-0.51514070	-0.04853808	-1.12720386	-0.41886127	0.38591053	-0.31797836	-0.05799827	-0.30178956	0.85864423	0.09793231	-0.31603323	0.23775184	-0.26058873	-1.22611755	-0.33656682	-0.88980303	-1.25167689	0.54923083
6487	64.86000000	-0.25728058	0.10542697	-0.10659690	-0.45051299	-0.13543848	-0.05618705	-0.52086073	-0.06775068	-1.17807384	-0.37288612	0.41276983	-0.20270615	-0.16360189	-0.40892492	1.18281277	0.35316729	-0.38782482	0.27265249	-0.29317711	-1.30968261	-0.34849759	-1.56729313	-2.07481677	0.77168133
6488	64.87000000	-0.26177770	0.14481162	-0.11260800	-0.47717615	-0.13715254	-0.08089171	-0.50775628	-0.06857859	-1.24078527	-0.41158635	0.46296444	-0.23927854	-0.34330864	-0.51615505	1.35487123	0.53788359	-0.50283301	0.38666113	-0.30407572	-1.40534084	-0.37890045	-0.34692926	-2.04608835	0.54415607
6489	64.88000000	-0.28269166	0.19884306	-0.10488269	-0.49439469	-0.15208759	-0.10829067	-0.51582167	-0.07245839	-1.29505352	-0.45319416	0.50571594	-0.28683077	-0.44266921	-0.48604756	1.22334325	0.63860591	-0.60264119	0.57359816	-0.33429875	-1.51654384	-0.41691519	-1.76890248	-1.57436498	0.57341300
6490	64.89000000	-0.28508808	0.22032205	-0.11019809	-0.49744697	-0.16596322	-0.15073655	-0.54523513	-0.06759929	-1.34688164	-0.38700675	0.52498343	-0.19081992	-0.36336265	-0.58441462	0.74869198	0.67492120	-0.62153898	0.80058528	-0.33588099	-1.66047436	-0.47005522	-2.07772693	-1.98097957	0.83800270
